<?xml version="1.0" encoding="UTF-8"?>
<svg xmlns="http://www.w3.org/2000/svg" xmlns:xlink="http://www.w3.org/1999/xlink" width="68px" height="68px" viewBox="0 0 68 68" version="1.1">
<g id="surface1">
<path style=" stroke:none;fill-rule:nonzero;fill:rgb(100%,100%,100%);fill-opacity:1;" d="M 34.164062 11.898438 C 21.746094 11.898438 11.640625 22.003906 11.640625 34.425781 C 11.640625 40.683594 14.144531 46.492188 18.675781 50.789062 L 18.914062 51.023438 L 19.171875 50.789062 C 19.832031 50.171875 20.519531 49.628906 21.226562 49.109375 C 24.671875 52.15625 29.207031 54.023438 34.164062 54.023438 C 39.125 54.023438 43.65625 52.15625 47.105469 49.109375 C 47.8125 49.628906 48.496094 50.171875 49.160156 50.789062 L 49.417969 51.023438 L 49.652344 50.789062 C 54.210938 46.492188 56.714844 40.660156 56.714844 34.425781 C 56.714844 22.003906 46.585938 11.898438 34.164062 11.898438 Z M 34.164062 11.898438 "/>
<path style=" stroke:none;fill-rule:nonzero;fill:rgb(41.568627%,45.490196%,48.627451%);fill-opacity:1;" d="M 34.164062 11.898438 C 21.746094 11.898438 11.640625 22.003906 11.640625 34.425781 C 11.640625 40.683594 14.144531 46.492188 18.675781 50.789062 L 18.914062 51.023438 L 19.171875 50.789062 C 19.832031 50.171875 20.519531 49.628906 21.226562 49.109375 C 24.671875 52.15625 29.207031 54.023438 34.164062 54.023438 C 39.125 54.023438 43.65625 52.15625 47.105469 49.109375 C 47.8125 49.628906 48.496094 50.171875 49.160156 50.789062 L 49.417969 51.023438 L 49.652344 50.789062 C 54.210938 46.492188 56.714844 40.660156 56.714844 34.425781 C 56.714844 22.003906 46.585938 11.898438 34.164062 11.898438 Z M 34.164062 53.289062 C 29.441406 53.289062 25.144531 51.542969 21.839844 48.6875 C 24.484375 46.914062 27.460938 45.734375 30.601562 45.238281 L 30.601562 50.976562 L 35.960938 50.976562 C 36.929688 50.976562 37.707031 50.195312 37.707031 49.230469 L 37.707031 45.238281 C 40.847656 45.734375 43.847656 46.914062 46.492188 48.710938 C 43.183594 51.542969 38.886719 53.289062 34.164062 53.289062 Z M 15.300781 34.425781 C 15.300781 24.011719 23.753906 15.558594 34.164062 15.558594 C 44.578125 15.558594 53.03125 24.011719 53.03125 34.425781 C 53.03125 39.855469 50.714844 44.742188 47.058594 48.191406 C 44.246094 46.277344 41.082031 45.027344 37.730469 44.507812 L 36.195312 44.507812 L 36.195312 43.46875 C 36.195312 42.214844 35.296875 41.25 34.117188 41.25 C 32.9375 41.25 32.085938 42.167969 32.085938 43.46875 L 32.085938 44.507812 L 30.625 44.507812 C 27.269531 45.027344 24.082031 46.277344 21.296875 48.191406 C 17.613281 44.742188 15.300781 39.855469 15.300781 34.425781 Z M 35.464844 44.507812 L 32.796875 44.507812 L 32.796875 43.46875 C 32.796875 42.59375 33.339844 41.980469 34.09375 41.980469 C 34.875 41.980469 35.441406 42.59375 35.441406 43.46875 L 35.441406 44.507812 Z M 37 45.214844 L 37 49.207031 C 37 49.773438 36.527344 50.246094 35.960938 50.246094 L 31.332031 50.246094 L 31.332031 45.238281 L 37 45.238281 Z M 49.394531 50.03125 C 48.828125 49.535156 48.261719 49.0625 47.648438 48.617188 C 51.402344 45.050781 53.761719 39.996094 53.761719 34.425781 C 53.761719 23.609375 44.980469 14.828125 34.164062 14.828125 C 23.351562 14.828125 14.566406 23.609375 14.566406 34.425781 C 14.566406 39.996094 16.90625 45.027344 20.660156 48.617188 C 20.070312 49.0625 19.480469 49.535156 18.914062 50.03125 C 14.6875 45.898438 12.347656 40.375 12.347656 34.425781 C 12.347656 22.40625 22.125 12.609375 34.164062 12.609375 C 46.207031 12.609375 55.980469 22.382812 55.980469 34.425781 C 55.980469 40.351562 53.644531 45.875 49.394531 50.03125 Z M 49.394531 50.03125 "/>
<path style=" stroke:none;fill-rule:nonzero;fill:rgb(41.568627%,45.490196%,48.627451%);fill-opacity:1;" d="M 34.753906 47.578125 C 34.753906 47.902344 34.492188 48.167969 34.164062 48.167969 C 33.839844 48.167969 33.574219 47.902344 33.574219 47.578125 C 33.574219 47.25 33.839844 46.984375 34.164062 46.984375 C 34.492188 46.984375 34.753906 47.25 34.753906 47.578125 Z M 34.753906 47.578125 "/>
<path style=" stroke:none;fill-rule:nonzero;fill:rgb(88.627451%,13.72549%,10.196078%);fill-opacity:1;" d="M 28.546875 21.816406 C 28.027344 21.816406 27.601562 22.171875 27.601562 22.621094 C 27.601562 23.066406 28.027344 23.421875 28.546875 23.421875 C 29.066406 23.421875 29.492188 23.066406 29.492188 22.621094 C 29.492188 22.171875 29.066406 21.816406 28.546875 21.816406 M 28.546875 23.964844 C 27.71875 23.964844 27.058594 23.375 27.058594 22.621094 C 27.058594 21.863281 27.71875 21.273438 28.546875 21.273438 C 29.371094 21.273438 30.035156 21.863281 30.035156 22.621094 C 30.007812 23.375 29.371094 23.964844 28.546875 23.964844 "/>
<path style=" stroke:none;fill-rule:nonzero;fill:rgb(88.627451%,13.72549%,10.196078%);fill-opacity:1;" d="M 33.835938 23.964844 C 33.527344 23.964844 33.292969 23.730469 33.292969 23.421875 L 33.292969 22.3125 C 33.292969 22.054688 33.054688 21.839844 32.773438 21.839844 C 32.488281 21.839844 32.253906 22.054688 32.253906 22.3125 L 32.253906 23.964844 C 31.945312 23.964844 31.710938 23.730469 31.710938 23.421875 L 31.710938 22.289062 C 31.710938 22.027344 31.472656 21.816406 31.191406 21.816406 C 30.90625 21.816406 30.671875 22.027344 30.671875 22.289062 L 30.671875 23.398438 C 30.671875 23.707031 30.433594 23.941406 30.128906 23.941406 L 30.128906 22.289062 C 30.128906 21.722656 30.601562 21.273438 31.191406 21.273438 C 31.496094 21.273438 31.78125 21.390625 31.96875 21.605469 C 32.160156 21.390625 32.441406 21.273438 32.75 21.273438 C 33.339844 21.273438 33.8125 21.722656 33.8125 22.289062 Z M 33.835938 23.964844 "/>
<path style=" stroke:none;fill-rule:nonzero;fill:rgb(88.627451%,13.72549%,10.196078%);fill-opacity:1;" d="M 35.605469 23.964844 C 35.464844 23.964844 35.320312 23.964844 35.203125 23.917969 C 34.921875 23.847656 34.753906 23.539062 34.828125 23.257812 C 34.828125 23.234375 34.851562 23.1875 34.851562 23.164062 C 34.992188 23.328125 35.25 23.421875 35.582031 23.421875 C 36.078125 23.421875 36.457031 23.066406 36.457031 22.644531 C 36.457031 22.195312 36.078125 21.816406 35.582031 21.816406 C 35.109375 21.816406 34.636719 22.078125 34.636719 22.644531 L 34.636719 24.390625 C 34.636719 24.671875 34.402344 24.910156 34.09375 24.910156 L 34.09375 22.644531 C 34.09375 21.863281 34.707031 21.273438 35.558594 21.273438 C 35.9375 21.273438 36.289062 21.414062 36.550781 21.652344 C 36.808594 21.910156 36.976562 22.242188 36.976562 22.621094 C 37.023438 23.375 36.382812 23.964844 35.605469 23.964844 "/>
<path style=" stroke:none;fill-rule:nonzero;fill:rgb(88.627451%,13.72549%,10.196078%);fill-opacity:1;" d="M 39.429688 20.777344 L 38.273438 20.777344 L 38.273438 23.964844 L 38.25 23.964844 C 37.964844 23.964844 37.730469 23.730469 37.730469 23.421875 L 37.730469 20.777344 L 36.574219 20.777344 C 36.289062 20.777344 36.054688 20.542969 36.054688 20.234375 L 39.972656 20.234375 C 39.972656 20.519531 39.738281 20.777344 39.429688 20.777344 "/>
<path style=" stroke:none;fill-rule:nonzero;fill:rgb(88.627451%,13.72549%,10.196078%);fill-opacity:1;" d="M 42.855469 20.800781 L 42.097656 22.476562 L 43.539062 22.476562 L 42.757812 20.777344 Z M 44.058594 23.609375 L 43.773438 22.996094 L 41.863281 22.996094 L 41.578125 23.632812 C 41.4375 23.894531 41.082031 23.964844 40.824219 23.964844 L 42.382812 20.542969 C 42.476562 20.351562 42.617188 20.234375 42.808594 20.234375 C 42.996094 20.234375 43.160156 20.351562 43.230469 20.542969 L 44.765625 23.917969 C 44.484375 23.964844 44.175781 23.871094 44.058594 23.609375 "/>
<path style=" stroke:none;fill-rule:nonzero;fill:rgb(88.627451%,13.72549%,10.196078%);fill-opacity:1;" d="M 26.445312 21.25 C 26.160156 20.941406 25.734375 20.730469 25.265625 20.730469 C 24.4375 20.730469 23.753906 21.34375 23.753906 22.078125 C 23.753906 22.832031 24.4375 23.445312 25.265625 23.445312 C 25.664062 23.445312 26.042969 23.304688 26.328125 23.042969 C 26.515625 22.878906 26.820312 22.902344 27.011719 23.042969 C 26.871094 23.28125 26.65625 23.46875 26.421875 23.609375 C 26.066406 23.824219 25.6875 23.941406 25.265625 23.941406 C 24.128906 23.941406 23.210938 23.089844 23.210938 22.054688 C 23.210938 21.015625 24.128906 20.164062 25.265625 20.164062 C 26.066406 20.164062 26.796875 20.613281 27.128906 21.273438 C 26.917969 21.4375 26.632812 21.4375 26.445312 21.25 "/>
<path style=" stroke:none;fill-rule:nonzero;fill:rgb(88.627451%,13.72549%,10.196078%);fill-opacity:1;" d="M 45.097656 23.515625 C 45.097656 23.515625 45.074219 23.515625 45.074219 23.515625 C 45.074219 23.515625 45.097656 23.539062 45.144531 23.609375 C 45.121094 23.632812 45.097656 23.632812 45.074219 23.609375 C 45.003906 23.539062 45.003906 23.539062 45.003906 23.539062 L 44.933594 23.539062 L 44.933594 23.515625 C 44.933594 23.492188 44.957031 23.46875 44.980469 23.46875 L 45.003906 23.46875 C 45.027344 23.46875 45.050781 23.46875 45.050781 23.46875 C 45.050781 23.46875 45.074219 23.46875 45.074219 23.445312 C 45.074219 23.445312 45.074219 23.421875 45.003906 23.421875 L 44.910156 23.421875 L 44.910156 23.609375 C 44.910156 23.632812 44.882812 23.660156 44.859375 23.660156 L 44.835938 23.660156 L 44.835938 23.421875 C 44.835938 23.398438 44.859375 23.375 44.882812 23.375 L 45.003906 23.375 C 45.121094 23.375 45.144531 23.445312 45.144531 23.46875 C 45.144531 23.46875 45.121094 23.515625 45.097656 23.515625 M 44.980469 23.304688 C 44.859375 23.304688 44.765625 23.398438 44.765625 23.492188 C 44.765625 23.609375 44.859375 23.683594 44.980469 23.683594 C 45.097656 23.683594 45.214844 23.585938 45.214844 23.492188 C 45.214844 23.398438 45.097656 23.304688 44.980469 23.304688 M 44.980469 23.753906 C 44.8125 23.753906 44.695312 23.632812 44.695312 23.492188 C 44.695312 23.351562 44.8125 23.234375 44.980469 23.234375 C 45.144531 23.234375 45.261719 23.351562 45.261719 23.492188 C 45.261719 23.632812 45.144531 23.753906 44.980469 23.753906 "/>
<path style=" stroke:none;fill-rule:nonzero;fill:rgb(88.627451%,13.72549%,10.196078%);fill-opacity:1;" d="M 40.140625 20.234375 L 40.140625 23.445312 C 40.140625 23.730469 40.375 23.964844 40.683594 23.964844 L 40.683594 20.753906 C 40.683594 20.472656 40.445312 20.234375 40.140625 20.234375 "/>
<path style=" stroke:none;fill-rule:nonzero;fill:rgb(88.627451%,13.72549%,10.196078%);fill-opacity:1;" d="M 57.492188 26.375 L 8.878906 26.375 L 8.878906 38.15625 C 8.878906 39.242188 9.773438 40.140625 10.859375 40.140625 L 59.476562 40.140625 L 59.476562 28.355469 C 59.453125 27.246094 58.578125 26.375 57.492188 26.375 Z M 57.492188 26.375 "/>
<path style=" stroke:none;fill-rule:nonzero;fill:rgb(100%,100%,100%);fill-opacity:1;" d="M 18.839844 32.914062 C 20.140625 33.222656 20.800781 33.691406 20.800781 34.707031 C 20.800781 35.867188 19.902344 36.550781 18.628906 36.550781 C 17.683594 36.550781 16.8125 36.21875 16.078125 35.582031 L 16.714844 34.828125 C 17.308594 35.320312 17.875 35.628906 18.652344 35.628906 C 19.3125 35.628906 19.738281 35.320312 19.738281 34.851562 C 19.738281 34.402344 19.503906 34.164062 18.371094 33.90625 C 17.070312 33.597656 16.339844 33.195312 16.339844 32.0625 C 16.339844 31 17.210938 30.292969 18.417969 30.292969 C 19.3125 30.292969 20.023438 30.554688 20.636719 31.070312 L 20.070312 31.875 C 19.527344 31.472656 18.960938 31.238281 18.417969 31.238281 C 17.777344 31.238281 17.425781 31.566406 17.425781 31.96875 C 17.402344 32.417969 17.683594 32.628906 18.839844 32.914062 Z M 18.839844 32.914062 "/>
<path style=" stroke:none;fill-rule:nonzero;fill:rgb(100%,100%,100%);fill-opacity:1;" d="M 23.824219 35.699219 C 24.34375 35.699219 24.695312 35.511719 25.074219 35.15625 L 25.6875 35.699219 C 25.265625 36.21875 24.648438 36.574219 23.800781 36.574219 C 22.476562 36.574219 21.4375 35.605469 21.4375 34.164062 C 21.4375 32.84375 22.382812 31.757812 23.683594 31.757812 C 25.144531 31.757812 25.878906 32.914062 25.878906 34.234375 C 25.878906 34.332031 25.878906 34.425781 25.855469 34.519531 L 22.5 34.519531 C 22.621094 35.273438 23.140625 35.699219 23.824219 35.699219 Z M 24.863281 33.835938 C 24.792969 33.148438 24.390625 32.628906 23.707031 32.628906 C 23.066406 32.628906 22.597656 33.125 22.5 33.835938 Z M 24.863281 33.835938 "/>
<path style=" stroke:none;fill-rule:nonzero;fill:rgb(100%,100%,100%);fill-opacity:1;" d="M 28.828125 36.550781 C 27.460938 36.550781 26.445312 35.488281 26.445312 34.164062 C 26.445312 32.84375 27.460938 31.757812 28.828125 31.757812 C 29.703125 31.757812 30.246094 32.085938 30.671875 32.558594 L 30.007812 33.269531 C 29.679688 32.9375 29.347656 32.703125 28.804688 32.703125 C 28.050781 32.703125 27.484375 33.363281 27.484375 34.164062 C 27.484375 34.992188 28.050781 35.652344 28.851562 35.652344 C 29.347656 35.652344 29.726562 35.417969 30.058594 35.085938 L 30.695312 35.722656 C 30.269531 36.195312 29.726562 36.550781 28.828125 36.550781 Z M 28.828125 36.550781 "/>
<path style=" stroke:none;fill-rule:nonzero;fill:rgb(100%,100%,100%);fill-opacity:1;" d="M 34.378906 31.851562 L 35.441406 31.851562 L 35.441406 36.457031 L 34.378906 36.457031 L 34.378906 35.746094 C 34.070312 36.171875 33.644531 36.550781 32.9375 36.550781 C 31.898438 36.550781 31.308594 35.839844 31.308594 34.777344 L 31.308594 31.851562 L 32.371094 31.851562 L 32.371094 34.472656 C 32.371094 35.179688 32.726562 35.605469 33.363281 35.605469 C 33.976562 35.605469 34.402344 35.179688 34.402344 34.472656 L 34.402344 31.851562 Z M 34.378906 31.851562 "/>
<path style=" stroke:none;fill-rule:nonzero;fill:rgb(100%,100%,100%);fill-opacity:1;" d="M 37.566406 36.457031 L 36.503906 36.457031 L 36.503906 31.851562 L 37.566406 31.851562 L 37.566406 32.890625 C 37.847656 32.207031 38.390625 31.734375 39.195312 31.757812 L 39.195312 32.867188 L 39.125 32.867188 C 38.203125 32.867188 37.566406 33.457031 37.566406 34.683594 Z M 37.566406 36.457031 "/>
<path style=" stroke:none;fill-rule:nonzero;fill:rgb(100%,100%,100%);fill-opacity:1;" d="M 39.785156 31.144531 L 39.785156 30.152344 L 40.917969 30.152344 L 40.917969 31.144531 Z M 39.832031 36.457031 L 39.832031 31.851562 L 40.894531 31.851562 L 40.894531 36.457031 Z M 39.832031 36.457031 "/>
<path style=" stroke:none;fill-rule:nonzero;fill:rgb(100%,100%,100%);fill-opacity:1;" d="M 43.207031 35.015625 C 43.207031 35.417969 43.421875 35.582031 43.773438 35.582031 C 44.011719 35.582031 44.222656 35.535156 44.4375 35.417969 L 44.4375 36.289062 C 44.175781 36.433594 43.871094 36.527344 43.492188 36.527344 C 42.710938 36.527344 42.167969 36.195312 42.167969 35.179688 L 42.167969 32.75 L 41.578125 32.75 L 41.578125 31.851562 L 42.167969 31.851562 L 42.167969 30.578125 L 43.230469 30.578125 L 43.230469 31.851562 L 44.460938 31.851562 L 44.460938 32.75 L 43.207031 32.75 Z M 43.207031 35.015625 "/>
<path style=" stroke:none;fill-rule:nonzero;fill:rgb(100%,100%,100%);fill-opacity:1;" d="M 47.8125 36.574219 C 47.433594 37.519531 47.035156 37.871094 46.300781 37.871094 C 45.851562 37.871094 45.546875 37.777344 45.214844 37.589844 L 45.570312 36.808594 C 45.757812 36.902344 45.972656 36.976562 46.183594 36.976562 C 46.492188 36.976562 46.65625 36.832031 46.84375 36.433594 L 44.933594 31.828125 L 46.066406 31.828125 L 47.363281 35.25 L 48.566406 31.828125 L 49.679688 31.828125 Z M 47.8125 36.574219 "/>
<path style=" stroke:none;fill-rule:nonzero;fill:rgb(100%,100%,100%);fill-opacity:1;" d="M 51.730469 31.238281 L 52.722656 31.238281 L 52.722656 32.914062 L 54.398438 32.914062 L 54.398438 33.882812 L 52.722656 33.882812 L 52.722656 35.558594 L 51.730469 35.558594 L 51.730469 33.882812 L 50.054688 33.882812 L 50.054688 32.914062 L 51.730469 32.914062 Z M 51.730469 31.238281 "/>
<path style=" stroke:none;fill-rule:nonzero;fill:rgb(41.568627%,45.490196%,48.627451%);fill-opacity:1;" d="M 49.488281 49.511719 C 49.488281 49.511719 49.464844 49.511719 49.464844 49.511719 C 49.464844 49.511719 49.488281 49.535156 49.535156 49.605469 C 49.511719 49.628906 49.488281 49.628906 49.464844 49.605469 C 49.394531 49.535156 49.394531 49.535156 49.394531 49.535156 L 49.324219 49.535156 L 49.324219 49.511719 C 49.324219 49.488281 49.347656 49.464844 49.371094 49.464844 L 49.394531 49.464844 C 49.417969 49.464844 49.441406 49.464844 49.441406 49.464844 C 49.441406 49.464844 49.464844 49.464844 49.464844 49.441406 C 49.464844 49.441406 49.464844 49.417969 49.394531 49.417969 L 49.300781 49.417969 L 49.300781 49.605469 C 49.300781 49.628906 49.277344 49.652344 49.253906 49.652344 L 49.230469 49.652344 L 49.230469 49.417969 C 49.230469 49.394531 49.253906 49.371094 49.277344 49.371094 L 49.394531 49.371094 C 49.511719 49.371094 49.535156 49.441406 49.535156 49.464844 C 49.535156 49.464844 49.511719 49.488281 49.488281 49.511719 M 49.371094 49.277344 C 49.253906 49.277344 49.160156 49.371094 49.160156 49.464844 C 49.160156 49.582031 49.253906 49.652344 49.371094 49.652344 C 49.488281 49.652344 49.605469 49.558594 49.605469 49.464844 C 49.605469 49.371094 49.511719 49.277344 49.371094 49.277344 M 49.371094 49.75 C 49.207031 49.75 49.085938 49.628906 49.085938 49.488281 C 49.085938 49.347656 49.207031 49.230469 49.371094 49.230469 C 49.535156 49.230469 49.652344 49.347656 49.652344 49.488281 C 49.652344 49.628906 49.535156 49.75 49.371094 49.75 "/>
</g>
</svg>
